<svg xmlns="http://www.w3.org/2000/svg" viewBox="0 0 1024 1024"><linearGradient id="a" x1="149.961" x2="874.039" y1="874.039" y2="149.961" gradientUnits="userSpaceOnUse"><stop offset="0" stop-color="#00b80d"/><stop offset="1" stop-color="#00dd52"/></linearGradient><path fill="url(#a)" fill-rule="evenodd" d="M0 601.6c0 155.468 0 233.202 32.641 291.487a256 256 0 0 0 98.272 98.272C189.198 1024 266.932 1024 422.4 1024h179.2c155.468 0 233.202 0 291.487-32.641a256 256 0 0 0 98.272-98.272C1024 834.802 1024 757.068 1024 601.6V422.4c0-155.468 0-233.202-32.641-291.487a256 256 0 0 0-98.272-98.272C834.802 0 757.068 0 601.6 0H422.4C266.932 0 189.198 0 130.913 32.641a256 256 0 0 0-98.272 98.272C0 189.198 0 266.932 0 422.4Z"/><filter id="b" width="1024" height="1024" x="0" y="0" color-interpolation-filters="sRGB" filterUnits="userSpaceOnUse" primitiveUnits="userSpaceOnUse"><feGaussianBlur stdDeviation="5"/><feOffset dy="2.5" result="offsetblur"/><feFlood flood-color="#000" flood-opacity=".5"/><feComposite in2="offsetblur" operator="in"/><feMerge><feMergeNode/><feMergeNode in="SourceGraphic"/></feMerge></filter><path fill="none" stroke="#fff" stroke-width="48" d="M224.323 322h575.354C817.528 322 832 336.472 832 354.323v316.768c0 17.852-14.472 32.323-32.323 32.323H224.323c-17.851 0-32.323-14.471-32.323-32.323V354.323C192 336.472 206.472 322 224.323 322Z" filter="url(#b)"/><filter id="c" width="1024" height="1024" x="0" y="0" color-interpolation-filters="sRGB" filterUnits="userSpaceOnUse" primitiveUnits="userSpaceOnUse"><feGaussianBlur stdDeviation="5"/><feOffset dy="2.5" result="offsetblur"/><feFlood flood-color="#000" flood-opacity=".5"/><feComposite in2="offsetblur" operator="in"/><feMerge><feMergeNode/><feMergeNode in="SourceGraphic"/></feMerge></filter><path fill="#fff" d="M272.808 622.606V402.808h64.647l64.646 80.808 64.646-80.808h64.647v219.798h-64.647v-126.06l-64.646 80.808-64.646-80.809v126.061Zm404.04 0-96.97-106.667h64.647V402.81h64.647v113.13h64.646Z" filter="url(#c)"/></svg>